<svg data-name="Layer 1" xmlns="http://www.w3.org/2000/svg" xmlns:xlink="http://www.w3.org/1999/xlink" viewBox="0 0 196 82"><defs><linearGradient id="a" x1="20.51" y1="59" x2="20.51" y2="6.34" gradientUnits="userSpaceOnUse"><stop offset="0" stop-color="#fab802"/><stop offset=".16" stop-color="#fab906"/><stop offset=".31" stop-color="#fabc11"/><stop offset=".46" stop-color="#f9c124"/><stop offset=".6" stop-color="#f9c93f"/><stop offset=".75" stop-color="#f8d261"/><stop offset=".88" stop-color="#f8de8b"/><stop offset="1" stop-color="#f7e9b3"/></linearGradient><linearGradient id="b" x1="69.33" y1="59.6" x2="69.33" y2="6.51" xlink:href="#a"/><linearGradient id="c" x1="120.12" y1="59" x2="120.12" y2="6.34" xlink:href="#a"/><linearGradient id="d" x1="169.21" y1="59.56" x2="169.21" y2="7.05" xlink:href="#a"/></defs><path d="M3.7 6.34h4.74v22.09h24.14V6.34h4.74V59h-4.74V33.58H8.44V59H3.7V6.34z" fill="url(#a)"/><path d="M92 16.27L88.3 20a28.33 28.33 0 00-8.77-6.31 22.56 22.56 0 00-9.29-2.15 21.25 21.25 0 00-10.72 2.92 20.6 20.6 0 00-7.89 7.92 21.31 21.31 0 00-2.8 10.57 21.75 21.75 0 002.9 10.84 21.12 21.12 0 008 8.08 22.07 22.07 0 0011.2 2.94 18.49 18.49 0 0012.5-4.4A17.62 17.62 0 0089.47 39H74.21v-4.89h20.63q-.07 11.72-6.59 18.61T70.79 59.6q-13.28 0-21-9.55a26.24 26.24 0 01-6-17 27.2 27.2 0 013.42-13.37A25 25 0 0156.6 10a26.17 26.17 0 0113.47-3.49 28.59 28.59 0 0111.46 2.32A34.14 34.14 0 0192 16.27z" fill="url(#b)"/><path d="M101.09 59V6.34h1.05l32.23 40.36V6.34h4.77V59h-1.09l-32-39.87V59h-5z" fill="url(#c)"/><path d="M193.21 17.58l-3.87 3a21.26 21.26 0 00-7.7-6.44 22.19 22.19 0 00-9.86-2.14 21.5 21.5 0 00-10.88 2.87 20.43 20.43 0 00-7.76 7.71 21.65 21.65 0 00-2.75 10.89 20.64 20.64 0 006.16 15.26 21.14 21.14 0 0015.54 6.12 21.7 21.7 0 0017.26-8.22l3.87 3A24.83 24.83 0 01184 57a28.32 28.32 0 01-12.27 2.6q-12.89 0-20.33-8.74A26.64 26.64 0 01145.21 33a25 25 0 017.56-18.47Q160.33 7 171.71 7a27.39 27.39 0 0112.42 2.77 24.22 24.22 0 019.08 7.81z" fill="url(#d)"/><rect x="3.75" y="65" width="189.21" height="2.17" rx="1.08" ry="1.08" fill="#fff"/><text transform="matrix(.99 0 0 1 3.75 78.83)" font-size="10.95" font-family="Arial,Helvetica,sans-serif" fill="#fff">HUGO Gene Nomenclature Committee</text></svg>